<?xml version="1.0" standalone="no"?><svg xmlns="http://www.w3.org/2000/svg" viewBox="0 0 1440 320"><path fill="#252525" fill-opacity="1" d="M0,160L7.5,133.3C15,107,30,53,45,64C60,75,75,149,90,165.3C105,181,120,139,135,128C150,117,165,139,180,154.7C195,171,210,181,225,192C240,203,255,213,270,213.3C285,213,300,203,315,192C330,181,345,171,360,149.3C375,128,390,96,405,106.7C420,117,435,171,450,181.3C465,192,480,160,495,133.3C510,107,525,85,540,74.7C555,64,570,64,585,64C600,64,615,64,630,106.7C645,149,660,235,675,224C690,213,705,107,720,101.3C735,96,750,192,765,197.3C780,203,795,117,810,106.7C825,96,840,160,855,186.7C870,213,885,203,900,181.3C915,160,930,128,945,122.7C960,117,975,139,990,122.7C1005,107,1020,53,1035,53.3C1050,53,1065,107,1080,149.3C1095,192,1110,224,1125,229.3C1140,235,1155,213,1170,218.7C1185,224,1200,256,1215,277.3C1230,299,1245,309,1260,277.3C1275,245,1290,171,1305,144C1320,117,1335,139,1350,133.3C1365,128,1380,96,1395,74.7C1410,53,1425,43,1433,37.3L1440,32L1440,320L1432.5,320C1425,320,1410,320,1395,320C1380,320,1365,320,1350,320C1335,320,1320,320,1305,320C1290,320,1275,320,1260,320C1245,320,1230,320,1215,320C1200,320,1185,320,1170,320C1155,320,1140,320,1125,320C1110,320,1095,320,1080,320C1065,320,1050,320,1035,320C1020,320,1005,320,990,320C975,320,960,320,945,320C930,320,915,320,900,320C885,320,870,320,855,320C840,320,825,320,810,320C795,320,780,320,765,320C750,320,735,320,720,320C705,320,690,320,675,320C660,320,645,320,630,320C615,320,600,320,585,320C570,320,555,320,540,320C525,320,510,320,495,320C480,320,465,320,450,320C435,320,420,320,405,320C390,320,375,320,360,320C345,320,330,320,315,320C300,320,285,320,270,320C255,320,240,320,225,320C210,320,195,320,180,320C165,320,150,320,135,320C120,320,105,320,90,320C75,320,60,320,45,320C30,320,15,320,8,320L0,320Z"></path></svg>