<?xml version="1.0" standalone="no"?><svg xmlns="http://www.w3.org/2000/svg" viewBox="0 0 1440 320"><path fill="#ffffff" fill-opacity="1" d="M0,160L15,149.3C30,139,60,117,90,128C120,139,150,181,180,197.3C210,213,240,203,270,181.3C300,160,330,128,360,112C390,96,420,96,450,128C480,160,510,224,540,213.3C570,203,600,117,630,112C660,107,690,181,720,181.3C750,181,780,107,810,85.3C840,64,870,96,900,117.3C930,139,960,149,990,138.7C1020,128,1050,96,1080,117.3C1110,139,1140,213,1170,229.3C1200,245,1230,203,1260,160C1290,117,1320,75,1350,53.3C1380,32,1410,32,1425,32L1440,32L1440,320L1425,320C1410,320,1380,320,1350,320C1320,320,1290,320,1260,320C1230,320,1200,320,1170,320C1140,320,1110,320,1080,320C1050,320,1020,320,990,320C960,320,930,320,900,320C870,320,840,320,810,320C780,320,750,320,720,320C690,320,660,320,630,320C600,320,570,320,540,320C510,320,480,320,450,320C420,320,390,320,360,320C330,320,300,320,270,320C240,320,210,320,180,320C150,320,120,320,90,320C60,320,30,320,15,320L0,320Z"></path></svg>